<svg xmlns="http://www.w3.org/2000/svg" width="517" height="274" viewBox="0 0 517 274">
  <metadata><?xpacket begin="﻿" id="W5M0MpCehiHzreSzNTczkc9d"?>
<x:xmpmeta xmlns:x="adobe:ns:meta/" x:xmptk="Adobe XMP Core 5.6-c142 79.160924, 2017/07/13-01:06:39        ">
   <rdf:RDF xmlns:rdf="http://www.w3.org/1999/02/22-rdf-syntax-ns#">
      <rdf:Description rdf:about=""/>
   </rdf:RDF>
</x:xmpmeta>
                                                                                                    
                                                                                                    
                                                                                                    
                                                                                                    
                                                                                                    
                                                                                                    
                                                                                                    
                                                                                                    
                                                                                                    
                                                                                                    
                                                                                                    
                                                                                                    
                                                                                                    
                                                                                                    
                                                                                                    
                                                                                                    
                                                                                                    
                                                                                                    
                                                                                                    
                                                                                                    
                           
<?xpacket end="w"?></metadata>
<defs>
    <style>
      .cls-1, .cls-2, .cls-3 {
        fill-rule: evenodd;
      }

      .cls-1 {
        opacity: 0.4;
      }

      .cls-2 {
        opacity: 0.7;
      }
    </style>
  </defs>
  <path id="shape3" class="cls-1" d="M65.615,61.088L14.576,111.7a35.573,35.573,0,0,0,0,50.61l51.039,50.61a36.3,36.3,0,0,0,51.039,0l51.039-50.61a35.576,35.576,0,0,0,0-50.61l-51.039-50.61A36.3,36.3,0,0,0,65.615,61.088Z"/>
  <path id="shape2" class="cls-2" d="M209.288,35.783L132.73,111.7a35.574,35.574,0,0,0,0,50.61l76.558,75.916a36.319,36.319,0,0,0,51.039,0l76.558-75.916a35.576,35.576,0,0,0,0-50.61L260.327,35.783A36.318,36.318,0,0,0,209.288,35.783Z"/>
  <path id="shape1" class="cls-3" d="M352.274,10.477L250.2,111.7a35.576,35.576,0,0,0,0,50.61L352.274,263.529a36.3,36.3,0,0,0,51.039,0L505.39,162.308a35.573,35.573,0,0,0,0-50.61L403.313,10.477A36.318,36.318,0,0,0,352.274,10.477Z"/>
</svg>
