<svg xmlns="http://www.w3.org/2000/svg" width="220" height="116" viewBox="0 0 220 116">
  <metadata><?xpacket begin="﻿" id="W5M0MpCehiHzreSzNTczkc9d"?>
<x:xmpmeta xmlns:x="adobe:ns:meta/" x:xmptk="Adobe XMP Core 5.6-c142 79.160924, 2017/07/13-01:06:39        ">
   <rdf:RDF xmlns:rdf="http://www.w3.org/1999/02/22-rdf-syntax-ns#">
      <rdf:Description rdf:about=""/>
   </rdf:RDF>
</x:xmpmeta>
                                                                                                    
                                                                                                    
                                                                                                    
                                                                                                    
                                                                                                    
                                                                                                    
                                                                                                    
                                                                                                    
                                                                                                    
                                                                                                    
                                                                                                    
                                                                                                    
                                                                                                    
                                                                                                    
                                                                                                    
                                                                                                    
                                                                                                    
                                                                                                    
                                                                                                    
                                                                                                    
                           
<?xpacket end="w"?></metadata>
<defs>
    <style>
      .cls-1, .cls-2, .cls-3 {
        fill: #383838;
        fill-rule: evenodd;
      }

      .cls-1 {
        opacity: 0.4;
      }

      .cls-2 {
        opacity: 0.7;
      }
    </style>
  </defs>
  <path id="shape3" class="cls-1" d="M192.659,25.848l21.721,21.42a15.009,15.009,0,0,1,0,21.43L192.659,90.126a15.511,15.511,0,0,1-21.722,0L149.215,68.7a15.013,15.013,0,0,1,0-21.43l21.722-21.42A15.5,15.5,0,0,1,192.659,25.848Z"/>
  <path id="shape2" class="cls-2" d="M131.512,15.133L164.1,47.269a15.011,15.011,0,0,1,0,21.43l-32.583,32.139a15.5,15.5,0,0,1-21.721,0L77.208,68.7a15.011,15.011,0,0,1,0-21.43l32.583-32.136A15.516,15.516,0,0,1,131.512,15.133Z"/>
  <path id="shape1" class="cls-3" d="M70.659,4.421L114.1,47.269a15.011,15.011,0,0,1,0,21.43L70.659,111.553a15.5,15.5,0,0,1-21.722,0L5.494,68.7a15.01,15.01,0,0,1,0-21.43L48.937,4.421A15.517,15.517,0,0,1,70.659,4.421Z"/>
</svg>
