<svg xmlns="http://www.w3.org/2000/svg" width="338" height="192" viewBox="0 0 338 192">
  <metadata><?xpacket begin="﻿" id="W5M0MpCehiHzreSzNTczkc9d"?>
<x:xmpmeta xmlns:x="adobe:ns:meta/" x:xmptk="Adobe XMP Core 5.6-c142 79.160924, 2017/07/13-01:06:39        ">
   <rdf:RDF xmlns:rdf="http://www.w3.org/1999/02/22-rdf-syntax-ns#">
      <rdf:Description rdf:about=""/>
   </rdf:RDF>
</x:xmpmeta>
                                                                                                    
                                                                                                    
                                                                                                    
                                                                                                    
                                                                                                    
                                                                                                    
                                                                                                    
                                                                                                    
                                                                                                    
                                                                                                    
                                                                                                    
                                                                                                    
                                                                                                    
                                                                                                    
                                                                                                    
                                                                                                    
                                                                                                    
                                                                                                    
                                                                                                    
                                                                                                    
                           
<?xpacket end="w"?></metadata>
<defs>
    <style>
      .cls-1, .cls-2, .cls-3 {
        fill: #ff9600;
        fill-rule: evenodd;
      }

      .cls-1 {
        opacity: 0.4;
      }

      .cls-2 {
        opacity: 0.7;
      }
    </style>
  </defs>
  <path id="shape3" class="cls-1" d="M50.143,47.214L19.22,78.055a21.773,21.773,0,0,0,0,30.847l30.923,30.846a21.9,21.9,0,0,0,30.923,0L111.989,108.9a21.774,21.774,0,0,0,0-30.847L81.066,47.214A21.911,21.911,0,0,0,50.143,47.214Z"/>
  <path id="shape2" class="cls-2" d="M137.192,31.786L90.807,78.055a21.773,21.773,0,0,0,0,30.847l46.385,46.274a21.919,21.919,0,0,0,30.923,0L214.5,108.9a21.774,21.774,0,0,0,0-30.847l-46.384-46.27A21.911,21.911,0,0,0,137.192,31.786Z"/>
  <path id="shape1" class="cls-3" d="M223.823,16.363L161.977,78.055a21.776,21.776,0,0,0,0,30.847l61.846,61.7a21.91,21.91,0,0,0,30.923,0l61.846-61.7a21.772,21.772,0,0,0,0-30.847L254.746,16.363A21.911,21.911,0,0,0,223.823,16.363Z"/>
</svg>
